<svg width="13" height="14" viewBox="0 0 13 14" fill="none" xmlns="http://www.w3.org/2000/svg">
<path d="M6.4 1.6C6.4 0.716345 5.68366 0 4.8 0C3.91634 0 3.2 0.716345 3.2 1.6C3.2 2.48366 3.91634 3.2 4.8 3.2C5.68366 3.2 6.4 2.48366 6.4 1.6Z" fill="#939BAA"/>
<path d="M12.2 2.2C12.5314 2.2 12.8 1.93137 12.8 1.6C12.8 1.26863 12.5314 1 12.2 1L7.8 1C7.46863 1 7.2 1.26863 7.2 1.6C7.2 1.93137 7.46863 2.2 7.8 2.2L12.2 2.2Z" fill="#939BAA"/>
<path d="M2.4 1.6C2.4 1.93137 2.13137 2.2 1.8 2.2H0.6C0.268629 2.2 0 1.93137 0 1.6C0 1.26863 0.268629 1 0.6 1L1.8 1C2.13137 1 2.4 1.26863 2.4 1.6Z" fill="#939BAA"/>
<path d="M1.8 12.2C2.13137 12.2 2.4 11.9314 2.4 11.6C2.4 11.2686 2.13137 11 1.8 11H0.6C0.268629 11 0 11.2686 0 11.6C0 11.9314 0.268629 12.2 0.6 12.2H1.8Z" fill="#939BAA"/>
<path d="M12.2 12.2C12.5314 12.2 12.8 11.9314 12.8 11.6C12.8 11.2686 12.5314 11 12.2 11H7.8C7.46863 11 7.2 11.2686 7.2 11.6C7.2 11.9314 7.46863 12.2 7.8 12.2H12.2Z" fill="#939BAA"/>
<path d="M5.6 6.6C5.6 6.93137 5.33137 7.2 5 7.2H0.6C0.268629 7.2 0 6.93137 0 6.6C0 6.26863 0.268629 6 0.6 6L5 6C5.33137 6 5.6 6.26863 5.6 6.6Z" fill="#939BAA"/>
<path d="M12.2 7.2C12.5314 7.2 12.8 6.93137 12.8 6.6C12.8 6.26863 12.5314 6 12.2 6H11C10.6686 6 10.4 6.26863 10.4 6.6C10.4 6.93137 10.6686 7.2 11 7.2H12.2Z" fill="#939BAA"/>
<path d="M9.6 6.6C9.6 5.71634 8.88365 5 8 5C7.11634 5 6.4 5.71634 6.4 6.6C6.4 7.48366 7.11634 8.2 8 8.2C8.88365 8.2 9.6 7.48366 9.6 6.6Z" fill="#939BAA"/>
<path d="M6.4 11.6C6.4 10.7163 5.68366 10 4.8 10C3.91634 10 3.2 10.7163 3.2 11.6C3.2 12.4837 3.91634 13.2 4.8 13.2C5.68366 13.2 6.4 12.4837 6.4 11.6Z" fill="#939BAA"/>
</svg>
